PathFileType	4	(X/Y/Z)	Kaydara	
DataRate	CameraRate	NumFrames	NumMarkers	Units	OrigDataRate	OrigDataStartFrame	OrigNumFrames	
60.00	60.00	5	74	mm	60.00	1102	200	
Frame#	Time	N_lasi			N_rasi			N_rpsi			N_lpsi			N_fneck			N_bneck			N_fhead			N_rhead			N_lhead			N_rshld			N_relbtop			N_relbext			N_relblow			N_rwrext			N_rwrtop			N_rwrlow			N_lshld			N_lelbext			N_lelbtop			N_lwrext			N_lwrtop			N_lwrlow			N_rtopleg			N_ltopleg			N_rkneefr			N_rkneebk			N_rkneeis			N_lkneefr			N_lknssbk			N_lkneeis			N_rankfr			N_rankis			N_rankbk			N_lankfr			N_lankbk			N_lankis			Z_lasi			Z_rasi			Z_rpsi			Z_lpsi			Z_fneck			Z_bneck			Z_fhead			Z_rhead			Z_lhead			Z_rshld			Z_relbtop			Z_relbext			Z_relblow			Z_rwrext			Z_rwrtop			Z_rwrlow			Z_lshld			Z_lelbext			Z_lelblow			Z_lelbtop			Z_lwrext			Z_lwrtop			Z_lwrlow			Z_rtopleg			Z_ltopleg			Z_rkneefr			Z_rkneebk			Z_rkneeis			Z_lkneefr			Z_lknssbk			Z_lkneeis			Z_rankfr			Z_rankis			Z_lankfr			Z_lankbk			Z_lankis			N_lelblow			Z_rankbk			
		X1	Y1	Z1	X2	Y2	Z2	X3	Y3	Z3	X4	Y4	Z4	X5	Y5	Z5	X6	Y6	Z6	X7	Y7	Z7	X8	Y8	Z8	X9	Y9	Z9	X10	Y10	Z10	X11	Y11	Z11	X12	Y12	Z12	X13	Y13	Z13	X14	Y14	Z14	X15	Y15	Z15	X16	Y16	Z16	X17	Y17	Z17	X18	Y18	Z18	X19	Y19	Z19	X20	Y20	Z20	X21	Y21	Z21	X22	Y22	Z22	X23	Y23	Z23	X24	Y24	Z24	X25	Y25	Z25	X26	Y26	Z26	X27	Y27	Z27	X28	Y28	Z28	X29	Y29	Z29	X30	Y30	Z30	X31	Y31	Z31	X32	Y32	Z32	X33	Y33	Z33	X34	Y34	Z34	X35	Y35	Z35	X36	Y36	Z36	X37	Y37	Z37	X38	Y38	Z38	X39	Y39	Z39	X40	Y40	Z40	X41	Y41	Z41	X42	Y42	Z42	X43	Y43	Z43	X44	Y44	Z44	X45	Y45	Z45	X46	Y46	Z46	X47	Y47	Z47	X48	Y48	Z48	X49	Y49	Z49	X50	Y50	Z50	X51	Y51	Z51	X52	Y52	Z52	X53	Y53	Z53	X54	Y54	Z54	X55	Y55	Z55	X56	Y56	Z56	X57	Y57	Z57	X58	Y58	Z58	X59	Y59	Z59	X60	Y60	Z60	X61	Y61	Z61	X62	Y62	Z62	X63	Y63	Z63	X64	Y64	Z64	X65	Y65	Z65	X66	Y66	Z66	X67	Y67	Z67	X68	Y68	Z68	X69	Y69	Z69	X70	Y70	Z70	X71	Y71	Z71	X72	Y72	Z72	X73	Y73	Z73	X74	Y74	Z74	

151	18.350	-1272.46971	1028.05748	-390.10586	-1475.73471	1032.93655	-488.43185	-1350.39795	1096.49986	-702.84744	-1151.18004	1086.98708	-565.08179	-1396.58173	1502.34451	-431.28483	-1326.90598	1575.91965	-544.04930	-1406.10641	1719.77448	-335.32822	-1442.21146	1701.87927	-509.23065	-1292.28592	1704.53857	-461.67168	-1506.13068	1468.89496	-655.63187	-1481.36078	1190.41283	-800.56038	-1413.78326	1176.11221	-753.37395	-1508.04291	1181.48682	-730.45418	-1538.56125	935.55077	-766.65329	-1576.10428	947.39922	-734.01375	-1556.18896	947.47818	-690.22728	-1176.16554	1495.63080	-367.41459	-1153.84354	1204.56581	-332.16793	-1160.74265	1220.31174	-300.04715	-1359.59213	1077.23038	-259.59112	-1385.49210	1123.12759	-250.12745	-1398.59039	1129.09447	-298.04987	-1506.84296	917.47200	-658.49167	-1148.82103	892.89719	-460.21706	-1589.89777	518.42712	-462.32990	-1544.58374	530.95619	-573.00213	-1474.00742	501.66664	-482.88994	-1311.74149	469.30779	-592.95967	-1205.25208	493.86227	-595.80364	-1284.99435	515.31006	-693.63922	-1641.47888	217.30696	-485.28473	-1568.84552	202.84969	-489.73778	-1625.04684	203.81004	-548.88664	-1264.15565	162.10976	-690.74997	-1240.69641	192.63935	-776.11984	-1307.10266	188.39437	-741.18523	57.83076	981.88759	30.88441	294.89460	1006.44516	46.57141	253.37357	1049.77493	244.42049	62.82216	1033.52280	221.72346	115.90861	1435.59601	6.45482	129.94074	1515.16998	96.40371	102.75841	1556.77582	-129.96233	208.19305	1628.02063	15.01455	79.95444	1625.84717	41.79171	361.61980	1393.35785	119.61208	428.02307	1102.79213	186.28048	362.12032	1086.72867	156.46948	438.16811	1127.13501	106.55192	472.17262	864.58313	81.75567	486.22459	878.19946	37.58825	443.23105	888.19046	21.45797	-71.87127	1395.32547	84.24422	-34.74400	1068.77457	97.14160	-107.05904	1095.56320	45.25498	-104.63531	1060.52345	119.09414	-108.75439	868.53050	-2.26960	-106.08140	886.61339	-40.36620	-60.33862	888.23044	-40.74862	364.14803	898.86765	141.64652	9.59663	899.60930	112.18214	385.69042	448.08762	-14.01683	418.94474	486.23455	60.61003	303.87009	465.94231	39.75339	141.66176	405.59517	63.98446	76.56074	426.12209	118.64594	188.40252	438.12172	160.08390	383.98693	198.44051	100.86994	318.11300	208.91020	146.50686	192.70866	164.39137	150.08046	116.78645	154.55231	176.10365	167.18422	163.20953	219.15611	-1217.11548	1215.33104	-355.60089	385.39711	210.76641	176.74473 
152	18.367	-1280.12436	1024.51332	-378.64754	-1486.03394	1028.22678	-473.21884	-1365.61722	1092.56935	-689.52156	-1163.03154	1084.27490	-556.31004	-1406.86569	1497.68036	-417.97813	-1340.23743	1572.06787	-530.80738	-1416.90323	1715.75592	-321.64352	-1454.91531	1697.61169	-494.89475	-1304.24637	1700.29953	-449.11243	-1521.09360	1464.08936	-639.26823	-1498.11539	1185.73082	-784.88968	-1429.69772	1171.80473	-739.04709	-1523.19199	1176.75415	-713.96988	-1553.02231	930.59792	-749.55910	-1589.85352	942.19437	-716.00868	-1566.55609	941.56174	-676.19591	-1185.27412	1492.22092	-358.08109	-1160.78171	1202.14005	-321.47732	-1167.41074	1218.33282	-289.99022	-1367.90802	1080.45532	-244.85231	-1393.07739	1126.94061	-236.08128	-1406.36322	1132.37656	-283.98731	-1520.22598	913.72398	-642.05383	-1156.82968	891.16882	-451.92822	-1600.60791	518.13084	-440.41035	-1556.39374	526.71612	-552.24560	-1485.13458	499.41799	-462.71809	-1315.10742	467.05925	-586.72478	-1208.90022	493.55549	-591.42647	-1291.27457	515.24323	-687.27333	-1660.58624	219.38221	-442.79289	-1588.34763	202.86076	-446.27197	-1645.00076	201.14613	-505.49370	-1264.48021	162.21819	-689.65080	-1242.45209	194.37462	-774.70795	-1308.82797	188.86257	-739.61548	57.43337	981.21346	19.37801	295.23846	1005.36705	30.51220	257.10896	1049.38469	229.72485	66.39719	1033.14621	210.53778	116.64198	1434.35272	-7.62754	132.00421	1514.31549	82.04752	102.68051	1555.29602	-144.31023	209.08453	1626.94855	-0.39080	81.28630	1624.86237	27.31538	363.94730	1391.96243	101.72420	430.90420	1101.40480	168.30845	364.50207	1085.03540	138.10545	439.90170	1125.72014	88.19982	473.16605	863.16185	62.61087	486.52706	876.90536	18.57400	443.51105	886.94794	2.77139	-70.00005	1394.54285	73.41112	-33.70937	1067.90314	82.45948	-106.00232	1095.68092	30.95047	-103.56344	1059.60480	104.32178	-108.63709	869.55093	-19.92113	-105.40590	888.13614	-58.27447	-59.84152	889.69742	-58.56515	366.10477	898.47153	124.37107	10.93972	899.10370	102.82881	383.59962	448.69518	-38.18793	419.58767	483.51925	36.88686	303.42161	462.59731	18.73272	141.68388	405.09747	60.14214	77.17900	426.58840	115.45633	189.63814	438.95725	154.89391	391.58699	192.80743	57.10257	326.86462	198.13656	105.25822	192.94800	164.25859	148.82917	116.99590	154.90410	175.36528	167.49048	163.84537	218.02626	-1224.32388	1212.45857	-344.27662	395.38483	199.50327	133.77680 
153	18.383	-1288.45016	1020.78606	-366.64509	-1496.47415	1023.32474	-457.80884	-1379.98428	1088.44681	-676.21948	-1174.62914	1081.23520	-546.72989	-1418.04199	1493.02246	-403.80489	-1353.55423	1567.92114	-517.33730	-1427.82104	1711.55273	-307.60672	-1467.58499	1693.19168	-480.54340	-1315.96924	1695.95932	-436.68259	-1535.74875	1458.96164	-622.72301	-1514.77432	1180.84511	-768.71353	-1445.17746	1167.16591	-724.51660	-1538.26828	1171.78398	-697.16110	-1567.23541	925.43922	-732.41348	-1603.33588	936.66489	-698.08113	-1579.92447	936.52908	-657.53395	-1194.67232	1488.31024	-348.24097	-1167.31239	1199.07593	-310.62902	-1173.88565	1215.59326	-279.71748	-1375.21225	1081.77567	-229.83526	-1399.36722	1128.68935	-221.97792	-1413.53027	1133.49457	-269.50714	-1532.97653	909.84467	-625.54565	-1165.28839	889.39018	-442.41379	-1610.86441	517.18719	-419.06033	-1567.37823	521.69563	-531.59733	-1494.57138	497.11151	-442.09148	-1319.12384	464.74590	-579.89826	-1213.38615	493.01941	-585.94902	-1298.20602	515.05878	-680.07446	-1676.32889	221.79600	-401.62731	-1604.53110	203.71510	-404.19285	-1661.45432	199.14152	-463.04752	-1265.10368	162.44400	-688.15468	-1244.30481	196.45741	-772.79259	-1310.44327	189.47401	-737.45705	57.14464	980.33318	8.12927	295.06622	1003.99780	15.17848	261.15732	1048.72238	214.75473	70.17428	1032.64069	199.34944	117.63440	1432.92221	-21.88309	134.28580	1513.24036	67.35068	102.60691	1553.41232	-158.96781	210.09962	1625.61676	-16.24619	82.28513	1623.54950	12.70521	366.42941	1390.39612	83.53024	433.83350	1099.96201	149.90948	367.74818	1084.34174	122.54007	441.44825	1124.03679	69.84799	474.36119	861.52435	43.41936	486.90384	875.23308	-0.52734	443.71502	885.24628	-15.62756	-67.63117	1393.69232	61.86323	-32.56371	1066.96289	67.84346	-104.75975	1095.66071	16.76250	-102.41755	1058.66432	89.57818	-108.34288	870.25887	-37.04488	-105.29572	889.35204	-75.03979	-59.48702	890.75478	-75.70245	367.72842	897.60506	106.70039	12.06913	898.51845	93.63271	381.02913	448.97232	-61.32351	419.15222	480.17761	14.69334	303.11262	458.49457	-0.81586	141.94746	404.45019	56.34878	77.81806	426.81385	112.47987	190.69796	439.54868	150.34547	398.16795	188.42196	13.02616	335.32692	188.54387	64.00012	193.30099	164.33367	147.41836	117.28299	155.25993	174.26661	168.15563	164.47245	216.87431	-1230.87753	1209.08783	-332.85534	405.81406	191.17416	92.11490 
154	18.400	-1297.38251	1016.93153	-354.00146	-1507.29767	1018.56422	-442.18742	-1393.80402	1084.02100	-662.74101	-1185.68527	1078.20580	-536.40308	-1429.56772	1488.50113	-389.23130	-1366.76590	1563.66974	-503.88977	-1438.64288	1707.33093	-293.43603	-1480.33035	1688.66455	-465.88604	-1328.28461	1691.54099	-423.60615	-1550.35675	1453.83148	-605.77003	-1531.12473	1175.74509	-752.21161	-1460.39734	1162.63672	-709.52652	-1553.13278	1166.69762	-680.04707	-1581.23718	919.87251	-714.99504	-1616.61392	930.93475	-680.02556	-1592.76764	931.02119	-639.46571	-1204.47495	1484.10080	-337.66727	-1174.21875	1196.21521	-299.91047	-1180.12024	1212.50076	-269.51040	-1381.08994	1081.09093	-215.04269	-1404.95880	1128.38951	-207.55304	-1419.60526	1132.60422	-254.91528	-1545.45670	905.81421	-608.93898	-1174.12430	887.27013	-432.00539	-1620.86578	516.23192	-397.70481	-1577.65289	516.49467	-510.96909	-1504.14658	494.98547	-421.22414	-1323.74130	462.14958	-572.19933	-1218.61839	492.34165	-580.06500	-1305.85861	514.65218	-671.94473	-1688.72803	224.09031	-362.53975	-1616.79489	205.01144	-364.70806	-1674.42703	197.52678	-422.56592	-1265.82153	162.77340	-686.60233	-1246.65573	198.69331	-770.45547	-1312.20108	190.22961	-734.90601	57.12317	979.41826	-2.00741	294.94247	1002.24922	-0.03950	265.59393	1047.39426	198.53138	74.32984	1032.12097	188.01212	118.83898	1431.60492	-36.38791	136.70481	1512.09351	52.45200	102.68636	1551.24405	-173.87321	211.02474	1624.13361	-32.56977	83.99376	1622.08450	-2.32817	368.99757	1388.73505	65.04995	436.97033	1098.32260	131.00027	371.01086	1082.92458	108.20024	443.34332	1122.21657	50.70394	475.81429	859.77882	24.16559	487.55207	873.17162	-19.71717	444.04217	883.08762	-33.96473	-65.23033	1392.65579	50.22799	-31.03370	1065.97885	53.14218	-103.26966	1095.43556	2.60626	-100.91038	1057.77855	75.07704	-107.92253	870.73242	-53.75909	-105.13945	890.27893	-91.28611	-59.33971	891.42776	-91.98933	369.40895	896.12305	89.96157	13.99536	898.11928	84.21020	377.96196	448.85666	-83.09694	418.54607	476.32454	-6.86620	302.56027	454.04434	-19.01883	142.24165	403.69244	52.88657	78.63039	426.80450	109.36008	192.04769	440.24147	145.74554	403.57315	185.62412	-31.03395	342.79579	180.59742	22.31137	193.47166	164.14845	145.72530	118.06216	155.54059	173.38442	168.88084	165.17923	215.47937	-1239.37584	1205.95383	-321.55293	412.47257	180.11929	45.07712 
155	18.417	-1306.62674	1013.15178	-340.99670	-1518.24036	1014.27620	-426.35567	-1407.19788	1079.48647	-648.73856	-1197.17041	1075.00175	-525.01961	-1441.37985	1483.98727	-374.38129	-1380.04715	1559.32007	-489.64279	-1449.67499	1703.30292	-279.09090	-1493.23441	1684.22775	-451.01883	-1340.71564	1687.21939	-410.43629	-1564.79233	1448.71048	-588.80337	-1547.02087	1170.57335	-735.25810	-1475.54062	1157.79495	-694.14085	-1567.86530	1161.45699	-662.51205	-1594.99908	914.48013	-697.64641	-1629.78821	925.24384	-661.92581	-1604.82681	925.19547	-622.20787	-1214.51210	1479.81934	-326.33270	-1180.23819	1192.65373	-289.74554	-1186.13968	1208.93929	-259.34547	-1386.80618	1078.73573	-198.85616	-1409.56741	1125.95673	-192.99253	-1425.12375	1129.66339	-240.03256	-1558.04367	901.86684	-591.85169	-1183.20641	884.61922	-420.97801	-1629.59793	515.10807	-375.72330	-1586.91650	511.40087	-489.57813	-1512.49481	492.68711	-400.02609	-1329.10828	459.39285	-563.66909	-1224.91852	491.60240	-573.20473	-1314.62769	514.07516	-662.81433	-1698.74329	225.52698	-326.54022	-1627.13760	206.29559	-328.17421	-1685.37949	195.99771	-385.62687	-1266.76865	163.32249	-684.50645	-1249.17587	201.33818	-767.75497	-1314.46045	191.18526	-731.78665	57.23962	977.86285	-12.85807	294.97890	1000.21004	-15.27452	270.43610	1046.79070	184.09286	78.75847	1031.76491	176.46807	120.29821	1429.88235	-51.20209	139.48315	1511.00235	37.15495	102.84258	1549.06418	-188.99601	212.44928	1622.72552	-48.97988	85.58013	1620.72205	-17.50903	371.59317	1386.98730	46.37397	440.33401	1096.65176	111.77263	373.89408	1081.35849	89.87279	445.43179	1120.29358	31.12168	477.19711	857.73102	5.24082	488.25279	870.84549	-38.84256	444.52297	880.69382	-52.42203	-62.38201	1391.60950	38.20184	-29.04582	1065.05890	38.31936	-101.68648	1095.29121	-11.31418	-98.74329	1056.86600	60.78115	-107.46553	871.09032	-69.58148	-104.66151	890.95711	-107.08883	-59.10463	891.89491	-107.86941	370.99510	894.00177	72.86554	15.21376	897.85194	75.03435	374.30653	448.12855	-103.43738	417.79667	471.93180	-27.79225	302.05032	449.08604	-36.03921	142.49560	403.15701	49.10688	79.21522	426.99848	106.35542	193.37475	440.86510	140.83198	407.86121	184.75563	-74.98866	349.36741	173.93776	-19.89832	193.85891	164.29968	143.87875	118.15710	156.22762	172.33559	169.26798	166.04298	214.20233	-1246.87431	1201.58073	-311.27174	419.77757	172.35281	-2.95540 
